<?xml version="1.0" standalone="no"?>
<!DOCTYPE svg PUBLIC "-//W3C//DTD SVG 20010904//EN"
 "http://www.w3.org/TR/2001/REC-SVG-20010904/DTD/svg10.dtd">
<svg version="1.0" xmlns="http://www.w3.org/2000/svg"
 width="200.000000pt" height="200.000000pt" viewBox="0 0 200.000000 200.000000"
 preserveAspectRatio="xMidYMid meet">

<g transform="translate(0.000000,200.000000) scale(0.100000,-0.100000)"
fill="#000000" stroke="none">
<path d="M1159 1460 l-184 -110 -5 35 c-13 93 -120 115 -162 34 -23 -45 -10
-89 35 -118 18 -12 27 -21 22 -21 -6 0 -34 -15 -62 -34 l-51 -34 5 34 c5 27 0
38 -25 64 -39 39 -91 41 -127 5 -75 -74 33 -202 116 -136 l24 18 1 -36 c0 -25
16 -61 48 -114 42 -69 46 -80 33 -90 -9 -7 -21 -24 -26 -39 -23 -63 34 -125
104 -112 30 5 35 3 49 -24 19 -36 52 -62 81 -62 11 0 79 35 150 78 99 59 136
77 150 71 11 -4 34 -8 52 -8 31 -1 54 -16 72 -48 7 -14 19 -10 90 31 44 26 83
51 86 55 2 4 -12 34 -32 66 l-37 58 24 16 c92 61 90 74 -44 297 -110 181 -151
234 -185 234 -10 0 -101 -49 -202 -110z m300 -153 c56 -93 101 -171 101 -175
0 -4 -8 -12 -19 -19 -17 -10 -22 -6 -49 38 -21 33 -38 49 -52 49 -12 0 -20 -7
-20 -17 0 -15 -1 -15 -18 0 -24 22 -38 21 -51 0 -6 -10 -11 -12 -11 -5 0 19
-48 15 -52 -5 -3 -15 -6 -14 -17 7 -10 17 -11 25 -2 28 16 5 13 32 -4 32 -8 0
-15 -5 -15 -12 0 -6 -7 -3 -15 8 -8 10 -14 24 -14 29 0 6 4 2 10 -8 11 -19 29
-14 29 9 0 8 -7 14 -15 14 -8 0 -15 5 -15 10 0 6 -7 10 -16 10 -11 0 -15 -6
-11 -20 3 -10 -1 -24 -8 -30 -9 -8 -11 -5 -8 13 4 18 -4 31 -27 50 l-31 27 33
20 c18 11 69 42 113 68 44 27 81 49 81 48 1 -1 47 -77 103 -169z m-551 101
c17 -17 15 -55 -4 -62 -40 -15 -73 19 -54 55 12 21 40 25 58 7z m-207 -139 c9
-18 7 -25 -9 -41 -16 -16 -23 -18 -41 -9 -23 13 -28 40 -9 59 19 19 46 14 59
-9z m429 2 c7 -15 5 -24 -8 -41 -16 -19 -22 -21 -40 -11 -24 13 -30 56 -9 64
26 11 47 6 57 -12z m-114 -58 c11 -53 116 -67 149 -21 12 17 17 20 27 10 9 -9
8 -12 -5 -12 -9 0 -17 -7 -17 -15 0 -8 7 -15 15 -15 8 0 15 6 15 12 0 13 13
-4 50 -67 13 -22 17 -35 10 -28 -15 14 -50 0 -50 -19 0 -6 13 -32 30 -59 l29
-48 -108 -66 c-60 -36 -113 -65 -118 -65 -8 0 -200 309 -206 330 -1 6 36 34
83 63 65 41 86 49 88 38 1 -9 5 -26 8 -38z m-116 -350 c0 -21 -38 -15 -50 7
-8 14 -8 26 1 41 11 21 11 21 30 -7 10 -16 19 -35 19 -41z"/>
<path d="M1060 1093 c-74 -27 -59 -151 19 -168 33 -7 85 15 95 40 31 83 -35
157 -114 128z m71 -64 c9 -18 7 -25 -10 -43 -17 -16 -25 -18 -39 -10 -22 14
-27 41 -12 59 18 22 48 18 61 -6z"/>
<path d="M606 1075 c-48 -44 -24 -133 39 -149 35 -9 91 19 105 53 35 86 -75
160 -144 96z m94 -40 c14 -17 5 -51 -16 -59 -35 -13 -73 41 -47 67 12 12 50 7
63 -8z"/>
<path d="M290 700 c0 -6 18 -46 40 -90 53 -105 69 -106 113 -10 l32 70 30 -70
c42 -98 60 -96 109 10 40 87 43 100 22 100 -7 0 -28 -33 -46 -72 l-32 -73 -34
73 c-21 44 -41 72 -50 72 -10 0 -28 -27 -47 -70 -18 -38 -35 -70 -38 -70 -3 0
-20 32 -39 70 -19 39 -40 70 -47 70 -7 0 -13 -5 -13 -10z"/>
<path d="M680 695 c0 -8 7 -15 15 -15 8 0 15 7 15 15 0 8 -7 15 -15 15 -8 0
-15 -7 -15 -15z"/>
<path d="M680 601 c0 -57 3 -71 15 -71 13 0 15 12 13 67 -2 42 -8 68 -15 71
-10 3 -13 -15 -13 -67z"/>
<path d="M734 661 c-2 -2 -4 -33 -4 -68 0 -56 2 -63 19 -63 17 0 20 8 23 53
l3 52 40 0 40 0 3 -52 c3 -46 6 -53 24 -53 19 0 20 5 16 56 -6 72 -22 85 -101
81 -32 -1 -61 -4 -63 -6z"/>
<path d="M936 657 c-11 -8 -17 -23 -14 -38 3 -21 10 -25 63 -34 72 -13 78 -29
13 -33 -29 -2 -48 1 -48 7 0 6 -7 11 -16 11 -27 0 -11 -33 21 -42 38 -11 100
-1 116 18 9 11 9 21 1 39 -10 22 -18 25 -67 25 -42 0 -55 3 -55 15 0 19 71 21
100 3 29 -18 39 1 11 23 -27 22 -98 26 -125 6z"/>
<path d="M1119 651 c-28 -22 -18 -41 11 -23 29 18 78 15 89 -5 8 -16 4 -18
-40 -15 -56 4 -79 -9 -79 -44 0 -33 40 -47 109 -39 l53 7 -4 55 c-3 39 -11 60
-23 69 -27 20 -89 17 -116 -5z m106 -86 c0 -5 -21 -11 -47 -13 -39 -3 -48 0
-48 13 0 13 9 16 48 13 26 -2 47 -7 47 -13z"/>
<path d="M1308 663 c-24 -6 -41 -63 -29 -96 13 -35 46 -50 92 -44 26 3 37 1
33 -5 -4 -6 -30 -8 -66 -5 -47 4 -58 2 -54 -8 2 -7 -2 -16 -10 -19 -19 -7 -18
-52 2 -60 16 -6 55 9 53 22 -4 25 4 32 40 32 60 0 71 18 71 109 l0 77 -57 1
c-32 0 -66 -1 -75 -4z m97 -68 l0 -40 -44 0 c-49 0 -65 21 -50 63 8 20 15 23
51 20 43 -3 43 -3 43 -43z m-102 -152 c-7 -2 -19 -2 -25 0 -7 3 -2 5 12 5 14
0 19 -2 13 -5z"/>
<path d="M1480 650 c-23 -23 -28 -91 -7 -108 37 -31 147 -21 147 13 0 17 -21
20 -37 4 -14 -14 -85 -8 -90 8 -3 8 15 13 59 15 56 3 63 5 66 25 8 55 -94 87
-138 43z m100 -25 c11 -13 6 -15 -39 -15 -47 0 -61 7 -44 23 12 13 71 7 83 -8z"/>
<path d="M558 493 c17 -3 22 -11 22 -34 0 -16 5 -29 10 -29 6 0 10 13 10 29 0
20 6 31 18 34 9 3 -5 5 -33 4 -27 0 -40 -2 -27 -4z"/>
<path d="M770 493 c0 -5 -26 -7 -57 -6 -58 2 -83 -8 -83 -33 0 -20 37 -36 58
-25 10 5 24 6 32 1 25 -14 70 0 70 21 0 26 29 24 40 -3 8 -22 9 -22 9 4 1 15
-2 29 -6 31 -18 10 -63 17 -63 10z m-93 -29 c-3 -3 -12 -4 -19 -1 -8 3 -5 6 6
6 11 1 17 -2 13 -5z m78 0 c13 -5 14 -8 3 -15 -20 -13 -38 -11 -38 6 0 16 9
19 35 9z m-78 -20 c-3 -3 -12 -4 -19 -1 -8 3 -5 6 6 6 11 1 17 -2 13 -5z"/>
<path d="M990 483 c0 -13 -3 -14 -12 -5 -17 17 -45 15 -56 -4 -8 -15 -10 -15
-15 0 -4 9 -18 16 -32 16 -22 0 -25 -4 -24 -32 1 -24 3 -27 6 -10 6 29 43 31
43 2 0 -19 21 -27 60 -21 32 5 66 3 81 -3 10 -4 23 0 33 9 15 15 16 15 16 -4
0 -28 48 -28 78 -1 12 12 22 17 22 11 0 -13 27 -22 46 -14 22 8 14 57 -10 62
-11 2 -26 -5 -33 -15 -12 -17 -13 -17 -13 3 0 19 -4 21 -37 16 -21 -3 -42 -9
-47 -14 -5 -4 -17 -2 -27 4 -15 9 -24 9 -39 -1 -17 -10 -20 -10 -20 3 0 8 -4
15 -10 15 -5 0 -10 -8 -10 -17z m-20 -28 c0 -8 -6 -15 -14 -15 -17 0 -28 14
-19 24 12 12 33 6 33 -9z m100 0 c0 -8 -9 -15 -20 -15 -11 0 -20 7 -20 15 0 8
9 15 20 15 11 0 20 -7 20 -15z m70 -1 c0 -9 -7 -14 -17 -12 -25 5 -28 28 -4
28 12 0 21 -6 21 -16z m93 9 c-7 -2 -19 -2 -25 0 -7 3 -2 5 12 5 14 0 19 -2
13 -5z m4 -19 c-3 -3 -12 -4 -19 -1 -8 3 -5 6 6 6 11 1 17 -2 13 -5z"/>
</g>
</svg>
